<svg width="32" height="32" viewBox="0 0 32 32" fill="none" xmlns="http://www.w3.org/2000/svg">
<path d="M25.3223 28.0027H23.9889V25.78C23.9848 25.017 23.8497 24.2603 23.5895 23.543C23.5749 23.5039 23.5597 23.4676 23.5417 23.4303C23.3257 22.8415 23.0274 22.2863 22.6556 21.7813L20.7891 19.2917C20.2712 18.5982 19.9906 17.7562 19.9889 16.8907V15.5443C19.992 14.4842 20.4128 13.468 21.1602 12.7161L22.0365 11.8398C23.0546 10.8162 23.7087 9.48663 23.8982 8.05533C23.8989 8.03679 23.9089 8.02132 23.9089 8.0026L23.9051 7.98429C23.9515 7.7004 23.9795 7.41381 23.9889 7.1263V4.00267H25.3223C25.6759 4.00267 26.015 3.86219 26.2651 3.61214C26.5151 3.36209 26.6556 3.02295 26.6556 2.66933C26.6556 2.31571 26.5151 1.97657 26.2651 1.72652C26.015 1.47647 25.6759 1.336 25.3223 1.336H6.65561C6.30199 1.336 5.96285 1.47647 5.7128 1.72652C5.46275 1.97657 5.32228 2.31571 5.32228 2.66933C5.32228 3.02295 5.46275 3.36209 5.7128 3.61214C5.96285 3.86219 6.30199 4.00267 6.65561 4.00267H7.98895V7.1263C7.99842 7.41381 8.02642 7.7004 8.07277 7.98429L8.06901 8.00266C8.06901 8.02133 8.07893 8.03685 8.07968 8.0554C8.26922 9.48669 8.92327 10.8162 9.94141 11.8399L10.8177 12.7162C11.565 13.4681 11.9859 14.4842 11.9889 15.5443V16.8907C11.9872 17.7561 11.7069 18.598 11.1895 19.2917L9.32161 21.7813C8.94994 22.2865 8.6517 22.8419 8.43579 23.4308C8.41805 23.4678 8.40283 23.5037 8.38843 23.5424C8.12823 24.2599 7.99311 25.0168 7.98893 25.78V28.0027H6.6556C6.30198 28.0027 5.96284 28.1431 5.71279 28.3932C5.46274 28.6432 5.32227 28.9824 5.32227 29.336C5.32227 29.6896 5.46274 30.0288 5.71279 30.2788C5.96284 30.5289 6.30198 30.6693 6.6556 30.6693H25.3223C25.6759 30.6693 26.015 30.5289 26.2651 30.2788C26.5151 30.0288 26.6556 29.6896 26.6556 29.336C26.6556 28.9824 26.5151 28.6432 26.2651 28.3932C26.015 28.1431 25.6759 28.0027 25.3223 28.0027V28.0027ZM10.6556 6.66933V4.00267H21.3223V6.66933H10.6556ZM11.8268 9.95449C11.639 9.76575 11.4706 9.55853 11.3243 9.336H20.6536C20.5073 9.55853 20.3389 9.76574 20.151 9.95449L19.2747 10.8308C18.2347 11.8647 17.5678 13.215 17.3789 14.6693H14.5989C14.4101 13.215 13.7432 11.8646 12.7031 10.8307L11.8268 9.95449ZM13.3229 20.8907C14.0944 19.8569 14.5519 18.6228 14.6406 17.336H17.3372C17.4259 18.623 17.8836 19.8571 18.6556 20.8907L19.9891 22.6693H11.9884L13.3229 20.8907ZM21.3223 28.0027H10.6556V25.78C10.6593 25.6314 10.6714 25.4832 10.6919 25.336H21.286C21.3064 25.4832 21.3186 25.6314 21.3223 25.78V28.0027Z" fill="white"/>
</svg>
