<svg width="32" height="32" viewBox="0 0 32 32" fill="none" xmlns="http://www.w3.org/2000/svg">
<path d="M3.33333 11.8133L15.3333 18.7467C15.536 18.8637 15.766 18.9253 16 18.9253C16.234 18.9253 16.464 18.8637 16.6667 18.7467L28.6667 11.8133C28.8682 11.697 29.0357 11.5299 29.1527 11.3288C29.2697 11.1276 29.3319 10.8994 29.3333 10.6667C29.3343 10.4317 29.2731 10.2007 29.156 9.997C29.039 9.79329 28.8701 9.62414 28.6667 9.50667L16.6667 2.58667C16.464 2.46964 16.234 2.40804 16 2.40804C15.766 2.40804 15.536 2.46964 15.3333 2.58667L3.33333 9.50667C3.12986 9.62414 2.96104 9.79329 2.84397 9.997C2.7269 10.2007 2.66573 10.4317 2.66667 10.6667C2.66807 10.8994 2.73035 11.1276 2.8473 11.3288C2.96425 11.5299 3.13182 11.697 3.33333 11.8133V11.8133ZM16 5.33333L25.3333 10.6667L16 16L6.66667 10.6667L16 5.33333ZM27.3333 14.8933L16 21.3333L4.66667 14.84C4.51449 14.7518 4.34637 14.6947 4.172 14.6718C3.99763 14.6488 3.82045 14.6607 3.65066 14.7065C3.48087 14.7524 3.32184 14.8314 3.18271 14.9389C3.04358 15.0465 2.92711 15.1806 2.84 15.3333C2.66617 15.6395 2.62048 16.002 2.7129 16.3417C2.80533 16.6814 3.02836 16.9708 3.33333 17.1467L15.3333 24.08C15.536 24.197 15.766 24.2586 16 24.2586C16.234 24.2586 16.464 24.197 16.6667 24.08L28.6667 17.1467C28.9716 16.9708 29.1947 16.6814 29.2871 16.3417C29.3795 16.002 29.3338 15.6395 29.16 15.3333C29.0729 15.1806 28.9564 15.0465 28.8173 14.9389C28.6782 14.8314 28.5191 14.7524 28.3493 14.7065C28.1796 14.6607 28.0024 14.6488 27.828 14.6718C27.6536 14.6947 27.4855 14.7518 27.3333 14.84V14.8933ZM27.3333 20.2267L16 26.6667L4.66667 20.1733C4.51449 20.0852 4.34637 20.028 4.172 20.0051C3.99763 19.9822 3.82045 19.994 3.65066 20.0398C3.48087 20.0857 3.32184 20.1647 3.18271 20.2723C3.04358 20.3798 2.92711 20.5139 2.84 20.6667C2.66617 20.9728 2.62048 21.3353 2.7129 21.675C2.80533 22.0147 3.02836 22.3041 3.33333 22.48L15.3333 29.4133C15.536 29.5304 15.766 29.592 16 29.592C16.234 29.592 16.464 29.5304 16.6667 29.4133L28.6667 22.48C28.9716 22.3041 29.1947 22.0147 29.2871 21.675C29.3795 21.3353 29.3338 20.9728 29.16 20.6667C29.0729 20.5139 28.9564 20.3798 28.8173 20.2723C28.6782 20.1647 28.5191 20.0857 28.3493 20.0398C28.1796 19.994 28.0024 19.9822 27.828 20.0051C27.6536 20.028 27.4855 20.0852 27.3333 20.1733V20.2267Z" fill="white"/>
</svg>
