<?xml version="1.0" encoding="UTF-8"?>
<svg id="Layer_1" xmlns="http://www.w3.org/2000/svg" width="988" height="376.2" xmlns:xlink="http://www.w3.org/1999/xlink" version="1.1" viewBox="0 0 988 376.2">
  <!-- Generator: Adobe Illustrator 29.8.2, SVG Export Plug-In . SVG Version: 2.1.1 Build 3)  -->
  <defs>
    <style>
      .st0 {
        fill: #273375;
      }

      .st1 {
        fill: url(#linear-gradient2);
      }

      .st2 {
        fill: url(#linear-gradient1);
      }

      .st3 {
        fill: url(#linear-gradient3);
      }

      .st4 {
        fill: url(#linear-gradient4);
      }

      .st5 {
        fill: url(#linear-gradient);
      }

      .st6 {
        fill: #fff;
      }
    </style>
    <linearGradient id="linear-gradient" x1="494" y1="-1.7" x2="494" y2="376.2" gradientUnits="userSpaceOnUse">
      <stop offset="0" stop-color="#e43549"/>
      <stop offset="1" stop-color="#b11d29"/>
    </linearGradient>
    <linearGradient id="linear-gradient1" x1="59" y1="42.6" x2="329.1" y2="42.6" xlink:href="#linear-gradient"/>
    <linearGradient id="linear-gradient2" x1="57" y1="333.1" x2="322.9" y2="333.1" xlink:href="#linear-gradient"/>
    <linearGradient id="linear-gradient3" x1="647.1" y1="42" x2="917.1" y2="42" xlink:href="#linear-gradient"/>
    <linearGradient id="linear-gradient4" x1="653.3" y1="333.1" x2="919.1" y2="333.1" xlink:href="#linear-gradient"/>
  </defs>
  <g>
    <polygon class="st5" points="988 130.3 988 256.8 559.4 256.8 559.4 376.2 433 376.2 433 256.8 0 256.8 0 130.3 433 130.3 433 -1.7 559.4 -1.7 559.4 130.3 988 130.3"/>
    <polygon class="st0" points="401.1 59.5 283 0 401.1 0 401.1 59.5"/>
    <polygon class="st2" points="329.1 85.1 226.9 85.1 59 0 164.7 0 329.1 85.1"/>
    <polygon class="st0" points="169.2 85.1 0 85.1 0 0 169.2 85.1"/>
    <polygon class="st0" points="394.9 316.2 278.6 375.7 394.9 375.7 394.9 316.2"/>
    <polygon class="st1" points="322.9 290.5 222.3 290.5 57 375.7 161.1 375.7 322.9 290.5"/>
    <polygon class="st0" points="166.6 290.5 0 290.5 0 375.7 166.6 290.5"/>
    <polygon class="st0" points="587.1 58.9 705.2 -.6 587.1 -.6 587.1 58.9"/>
    <polygon class="st3" points="647.1 84.5 749.2 84.5 917.1 -.6 811.4 -.6 647.1 84.5"/>
    <polygon class="st0" points="818.9 84.5 988 84.5 988 -.6 818.9 84.5"/>
    <polygon class="st0" points="593.3 315.9 709.5 376.2 593.3 376.2 593.3 315.9"/>
    <polygon class="st4" points="653.3 289.9 753.8 289.9 919.1 376.2 815 376.2 653.3 289.9"/>
    <polygon class="st0" points="821.5 289.9 988 289.9 988 376.2 821.5 289.9"/>
  </g>
  <g>
    <path class="st6" d="M420.9,192.4c-.5-4.3-2.8-8.3-6.3-10.9-2.5-1.9-4.9-2.8-7.9-3.6,4.2-2,8.1-4.3,9.6-9,2.5-7.5.2-15.5-6.7-19.7-7.9-4.8-17-4.2-25.9-4.2h-15.8s-5.8,0-5.8,0c0,22.6.4,46.9,0,69.4h20.6c10.8,0,26.7,1.3,34.3-8.3,3.3-4.2,4.7-8.4,4-13.9ZM400.3,164.3c.1,1.3,0,2.3-.4,3.3-.8,2.1-2.6,3.7-4.8,4.3-4.8,1.3-12.1.8-16.2.7v-14.6c6,0,20.4-2.1,21.4,6.2ZM397.8,200.6c-5.7,1.6-13.1.9-18.9.9v-16.2c5.8,0,14.2-.6,19.5.9,4,1.2,5.8,4.5,5.4,7.8s-2.9,5.7-5.9,6.5Z"/>
    <path class="st6" d="M318.6,143.9c12.3-1,23.4,3.1,31.9,12-3.4,3-7.7,7.3-11,10.6-11.9-13.4-34-10.3-38.2,7.3-5.3,22.4,17.4,34.7,35.8,23.4v-9s-14.9,0-14.9,0v-12.9s7.9,0,7.9,0h23.4s0,28.8,0,28.8c-8.3,7.7-16.6,10.8-28,11.7-10.9.8-22.2-1.8-30.6-9.1-7.1-6.1-11.3-14.7-11.9-24-1.5-22.1,14.4-37.3,35.7-38.7Z"/>
    <path class="st6" d="M481.2,185.5c-1.2-13.6-11.6-23.2-25.4-21.6-4.8.6-9,2.7-12.1,6.5v-25.2c0,0-15.4,0-15.4,0l-.4.4v69c4.6,0,9.2,0,13.9,0l.2-5.1c9.3,9.4,23.4,8.2,32.6-.8l.3-.3c5.7-7.1,7.2-13.9,6.4-22.8ZM463.4,196.7c-1.7,3.6-4.3,5-7.9,6.2-5.2.7-9-.8-11.9-5.3-.1-9.3-2.1-19.6,9.9-21.1,10.8-.4,13.8,12,10,20.2Z"/>
    <path class="st6" d="M539.3,188c-1-15.4-14.7-27-30.3-25.1-13.3,1.7-23.6,13.3-23.6,26.7,0,15.7,13.2,27.9,28.7,27,14.9-.9,26.1-13.8,25.2-28.6ZM513.1,202.9c-15.6,0-17.2-24.6-1.1-26.3,15.2-.3,16.6,24.7,1.1,26.3Z"/>
    <path class="st6" d="M642,193.9c0-2.1,0-4.1,0-6.1-.5-14.3-10.9-24.9-25.5-24.2-7.2.4-15,2.9-19.4,8.5-16,20.2-1.2,46.3,24.2,43.6,8.8-.9,12.5-2.7,19-8.2l-3.1-3.3c-1.7-1.7-3.8-3.7-5.3-5.5-8,7.5-22.4,7.5-25.5-4.8,11.7,0,23.9.2,35.6-.1ZM617.6,184.4h-10.9c.8-3.1,1.8-5.3,3.5-6.8,2.6-2.3,5.6-2.4,6.5-2.5,1,0,4.1-.1,6.9,2.1,3.3,2.6,3.6,6.4,3.7,7.1-3.2,0-6.4.1-9.6,0Z"/>
    <path class="st6" d="M700,163.6c7.3-.5,14,1.4,20.1,5.2l-6.1,10.1c-3.9-2.7-12.4-6.1-17.2-2.6-.5.4-1.2,1.8-1.1,2.3,1.4,4.8,10.5,4.6,14.5,6.7,2.8,1,5.1,2.3,7.3,4.3,5.5,5,4.9,15.4-.3,20.4-4.9,4.8-11.8,5.7-18.4,5.7-7.6-.2-13.9-2.2-20.2-6.5l7-10.1c4.3,3.3,9.1,5.3,14.6,5.3,2.6,0,6.9-.8,6.3-4.5-.4-2.9-4.8-3.8-7.2-4.4-5-1.4-10.3-2.6-14.4-6-5.9-4.7-5.4-14.1-.8-19.4,3.8-4.5,10-6.1,15.6-6.5Z"/>
    <path class="st6" d="M569.6,145.1h15.8c.2,22.9,0,46.4,0,69.4-5.2,0-10.6,0-15.9,0,.5-22.9-.4-46.4.1-69.4Z"/>
    <path class="st6" d="M673.6,163.9c3.1-.2,3.7-.2,6.6.9-.6,4.6-1.1,9.3-1.7,13.9-7-1.8-13.6,0-15.2,7.8-.7,3.5-.5,7.8-.5,11.5,0,5.5,0,11.1,0,16.6h-15.6c-.1-16.6-.2-33.2-.4-49.8h15.5s0,7.6,0,7.6c.3-.6.6-1.1,1-1.7,2.4-4,5.9-5.6,10.2-6.7Z"/>
    <path class="st6" d="M545.2,164.7h15.9c0,4.3.2,48.9-.3,49.8-5.2,0-10.4,0-15.5,0,.3-16.3,0-33.4,0-49.8Z"/>
    <path class="st6" d="M551,136.3c5.3,4.5,13.6,14.5,8,21.4-1.2,1.5-2.7,2.3-4.4,3.1,1.8-3.2,1.5-5.1-.8-7.9l-1.6-1.7c-1.9,4-4.2,3.9-2.5,9-1.7-1.4-3.8-3.1-4.3-5.3-1.8-8.2,8.3-9.6,5.6-18.6Z"/>
  </g>
  <g>
    <g>
      <path class="st6" d="M295.5,233.1c-.4.8-1.1,1.5-2,2s-2.1.8-3.4.8h-2.8v6.7h-3.4v-17.6h6.2c1.3,0,2.4.2,3.3.7.9.5,1.6,1.1,2.1,1.9s.7,1.8.7,2.8-.2,1.8-.6,2.6ZM292,232.3c.5-.4.7-1.1.7-1.9,0-1.7-.9-2.6-2.8-2.6h-2.7v5.1h2.7c.9,0,1.6-.2,2.1-.7Z"/>
      <path class="st6" d="M310.3,239.8h5.6v2.8h-8.9v-17.6h3.4v14.8Z"/>
      <path class="st6" d="M329.6,225v10.9c0,1.2.3,2.1.9,2.7.6.6,1.4.9,2.5.9s1.9-.3,2.5-.9c.6-.6.9-1.5.9-2.7v-10.9h3.4v10.8c0,1.5-.3,2.8-.9,3.8s-1.4,1.8-2.5,2.3c-1,.5-2.2.8-3.5.8s-2.4-.3-3.4-.8c-1-.5-1.8-1.3-2.4-2.3s-.9-2.3-.9-3.8v-10.8h3.4Z"/>
      <path class="st6" d="M369.8,225v17.6h-3.4v-11.4c-1.7,1.7-3.5,3.4-5.2,5.2h-1.1c-1.8-1.7-3.5-3.4-5.3-5.2v11.4h-3.4v-17.6h3.8c1.8,2.3,3.6,4.5,5.3,6.8,1.8-2.3,3.6-4.5,5.4-6.8h3.8Z"/>
      <path class="st6" d="M393.3,235c.6.8.9,1.7.9,2.8s-.2,1.8-.7,2.5c-.4.7-1.1,1.3-1.9,1.7-.8.4-1.8.6-3,.6h-7.3v-17.6h7c1.1,0,2.1.2,3,.6.8.4,1.5.9,1.9,1.6s.6,1.5.6,2.3-.3,1.9-.8,2.6c-.5.7-1.2,1.2-2.1,1.5.9.2,1.7.7,2.3,1.5ZM384.8,232.3h3.1c.8,0,1.4-.2,1.9-.6.4-.4.7-.9.7-1.6s-.2-1.2-.7-1.6c-.4-.4-1.1-.6-1.9-.6h-3.1v4.4ZM390.1,239.1c.5-.4.7-1,.7-1.7s-.2-1.3-.7-1.8c-.5-.4-1.1-.6-2-.6h-3.3v4.7h3.4c.8,0,1.5-.2,1.9-.6Z"/>
      <path class="st6" d="M408.6,225v17.6h-3.4v-17.6h3.4Z"/>
      <path class="st6" d="M434.7,242.6h-3.4l-7.7-12v12h-3.4v-17.6h3.4l7.7,12.1v-12.1h3.4v17.6Z"/>
      <path class="st6" d="M494.2,239.2h-6.7l-1.1,3.3h-3.6l6.1-17.6h3.9l6.1,17.6h-3.6l-1.1-3.3ZM493.3,236.4l-2.4-7.3-2.4,7.3h4.9Z"/>
      <path class="st6" d="M523.9,242.6h-3.4l-7.7-12v12h-3.4v-17.6h3.4l7.7,12.1v-12.1h3.4v17.6Z"/>
      <path class="st6" d="M546.1,226.1c1.3.7,2.4,1.7,3.1,3.1.7,1.3,1.1,2.9,1.1,4.6s-.4,3.3-1.1,4.6-1.8,2.3-3.1,3.1c-1.3.7-2.9,1.1-4.7,1.1h-5.9v-17.6h5.9c1.8,0,3.3.4,4.7,1.1ZM545.4,238.1c1-1,1.4-2.4,1.4-4.3s-.5-3.3-1.4-4.3-2.3-1.5-4.1-1.5h-2.4v11.6h2.4c1.8,0,3.1-.5,4.1-1.5Z"/>
      <path class="st6" d="M586.8,225v17.6h-3.4v-7.5h-7.2v7.5h-3.4v-17.6h3.4v7.2h7.2v-7.2h3.4Z"/>
      <path class="st6" d="M601.8,227.9v4.4h5.7v2.8h-5.7v4.7h6.4v2.9h-9.8v-17.6h9.8v2.9h-6.4Z"/>
      <path class="st6" d="M629.9,239.2h-6.7l-1.1,3.3h-3.6l6.1-17.6h3.9l6.1,17.6h-3.6l-1.1-3.3ZM629,236.4l-2.4-7.3-2.4,7.3h4.9Z"/>
      <path class="st6" d="M652.8,225v2.8h-4.5v14.7h-3.4v-14.7h-4.5v-2.8h12.4Z"/>
      <path class="st6" d="M666.9,225v17.6h-3.4v-17.6h3.4Z"/>
      <path class="st6" d="M693,242.6h-3.4l-7.7-12v12h-3.4v-17.6h3.4l7.7,12.1v-12.1h3.4v17.6Z"/>
    </g>
    <g>
      <rect class="st6" x="459.5" y="232.8" width="2.9" height="9.8"/>
      <path class="st6" d="M458.1,230.3c-.4-.7-.9-1.3-1.6-1.7-.7-.4-1.5-.6-2.4-.6s-1.9.2-2.7.7c-.8.5-1.4,1.1-1.8,2-.4.9-.7,1.9-.7,3s.2,2.2.7,3.1c.4.9,1.1,1.5,1.8,2,.8.5,1.7.7,2.8.7s2.3-.4,3.2-1.1c.8-.7,1.4-1.7,1.6-3h-5.8v-2.7h9.1v3.1c-.2,1.2-.7,2.4-1.4,3.4-.7,1-1.7,1.9-2.9,2.5-1.2.6-2.5.9-3.9.9s-3.1-.4-4.4-1.1c-1.3-.8-2.3-1.8-3.1-3.2-.7-1.4-1.1-2.9-1.1-4.6s.4-3.3,1.1-4.6c.7-1.4,1.8-2.4,3.1-3.2,1.3-.8,2.8-1.1,4.4-1.1s3.5.5,5,1.4,2.4,2.3,2.9,4.1h-3.9Z"/>
    </g>
    <g>
      <rect class="st6" x="718.6" y="232.8" width="2.9" height="9.8"/>
      <path class="st6" d="M717.2,230.3c-.4-.7-.9-1.3-1.6-1.7-.7-.4-1.5-.6-2.4-.6s-1.9.2-2.7.7c-.8.5-1.4,1.1-1.8,2-.4.9-.7,1.9-.7,3s.2,2.2.7,3.1c.4.9,1.1,1.5,1.8,2,.8.5,1.7.7,2.8.7s2.3-.4,3.2-1.1c.8-.7,1.4-1.7,1.6-3h-5.8v-2.7h9.1v3.1c-.2,1.2-.7,2.4-1.4,3.4-.7,1-1.7,1.9-2.9,2.5-1.2.6-2.5.9-3.9.9s-3.1-.4-4.4-1.1c-1.3-.8-2.3-1.8-3.1-3.2-.7-1.4-1.1-2.9-1.1-4.6s.4-3.3,1.1-4.6c.7-1.4,1.8-2.4,3.1-3.2,1.3-.8,2.8-1.1,4.4-1.1s3.5.5,5,1.4,2.4,2.3,2.9,4.1h-3.9Z"/>
    </g>
  </g>
</svg>