<?xml version="1.0" encoding="UTF-8"?>
<svg id="Layer_1" xmlns="http://www.w3.org/2000/svg" width="986.4" height="597.6" xmlns:xlink="http://www.w3.org/1999/xlink" version="1.1" viewBox="0 0 986.4 597.6">
  <!-- Generator: Adobe Illustrator 29.8.2, SVG Export Plug-In . SVG Version: 2.1.1 Build 3)  -->
  <defs>
    <style>
      .st0 {
        fill: #273375;
      }

      .st1 {
        fill: url(#linear-gradient2);
      }

      .st2 {
        fill: url(#linear-gradient1);
      }

      .st3 {
        fill: url(#linear-gradient3);
      }

      .st4 {
        fill: url(#linear-gradient4);
      }

      .st5 {
        fill: url(#linear-gradient);
      }

      .st6 {
        fill: #fff;
      }
    </style>
    <linearGradient id="linear-gradient" x1="493.2" y1="577" x2="493.2" y2="39.5" gradientUnits="userSpaceOnUse">
      <stop offset="0" stop-color="#e43549"/>
      <stop offset="1" stop-color="#b11d29"/>
    </linearGradient>
    <linearGradient id="linear-gradient1" x1="0" y1="488.1" x2="384.1" y2="488.1" gradientUnits="userSpaceOnUse">
      <stop offset="0" stop-color="#e43549"/>
      <stop offset="1" stop-color="#b11d29"/>
    </linearGradient>
    <linearGradient id="linear-gradient2" x1="546.1" y1="93.6" x2="978.5" y2="93.6" gradientUnits="userSpaceOnUse">
      <stop offset="0" stop-color="#e43549"/>
      <stop offset="1" stop-color="#b11d29"/>
    </linearGradient>
    <linearGradient id="linear-gradient3" x1="638.9" y1="477.1" x2="986.3" y2="477.1" gradientUnits="userSpaceOnUse">
      <stop offset="0" stop-color="#e43549"/>
      <stop offset="1" stop-color="#b11d29"/>
    </linearGradient>
    <linearGradient id="linear-gradient4" x1="0" y1="124.6" x2="304.9" y2="124.6" gradientUnits="userSpaceOnUse">
      <stop offset="0" stop-color="#e43549"/>
      <stop offset="1" stop-color="#b11d29"/>
    </linearGradient>
  </defs>
  <path class="st6" d="M986.3,33.5v533.4c-1.8-.4-33.9-7.1-55.2-9.8-22.9-2.9-24.5-1.7-41.5-3.8l-.8-.2-102.1-27s-11,6.9-11.5,7.2c-16.4,10.1-112.7-31.9-168.6-8.3-23.3,9.8-47.3,34.2-70.3,38.1-13.1,2.2-30.4,4-30.4,4-2.9-3.5-7-7.8-9.9-6.8-2.9,1-1.5,6.3-4.3,8-.4.2-.8.4-1.3.4-.2,0-.4,0-.6,0h0c-8.7.3-30-18.5-35.9-16.4-.9.3-1.3.6-7.2,5.2-2.5,1.9-14.2,14.4-25.2,19.3,0,0-3.3,1.5-30.5,3.8,0,0-13-12.4-13.4-12.8-21.1-20.1-134.9-9.3-134.9-9.3-82.8,7.8-124.5,11.8-134.3,16-6.9,3-24.9,11.6-47.4,9.4-8.1-.8-16.5-3-30.5-6.6-12.7-3.3-23.1-6.4-30.2-8.7v-11.7c0-10.2,0-27.4,0-53.3,0-25.9,0-60.5,0-105.6,0-7.7,0-15.7,0-24,0-45.4,0-100.3,0-166,0-7.7,0-15.5,0-23.4,0-27.3,0-56.4,0-87.4v-46.1c25.4.8,62,9.7,62,9.7,0,0,0,0,0,0,.8.3,14.1,5.4,27.7,10.3,4,1.4,8.8,2.9,15.5,4.6,19.6,4.9,17.6,1.9,29.6,5.8,26,8.6,34.1,22.5,52.3,20.3,6.4-.8,10.6-3.1,13.7-4.6,43.9-21.4,96.2,12.9,147.8-12.6,0,0,9.5-4.7,41.6-25.9,0,0,19.3-4.6,31-5.8.4,0,.9,0,1.3-.1,9.7-.9,23.3-.3,40.3,5.8,0,0,6.7-.7,42.2-18.3,0,0,28.7-5.7,30.3-6,.2,0,.4,0,.6-.1,15.7-2.9,47.3-3.5,115.6,5.1,16.9,2.2,42.5,4.1,73.1,0,22.8-3.1,30.6-7,51.6-12.7,9.1-2.5,16.9-4.2,32.4-7.5,20.4-4.2,37.2-6.9,48.3-8.5,3.6-.5,6.6-.9,8.7-1.2,4.6-1.2,11.6-2.6,20.2-2.7,0,0,10.9-.2,43.3,7.6,1.2,3,3,6.3,5.3,9.7,1.1,1.6,1.6,2,1.6,2,7.1,0,12.8,0,16.5,0,11.2-.1,16.8-.4,22,1,1.3.3,2.5.8,3.8,1.3,3.5,1.6,6.1,3.5,7.8,4.8Z"/>
  <path class="st5" d="M986.4,200.1v193.5s0,0,0,0c-21.5-6.2-49.9-10.2-72-13.2-72.5-9.5-144.3-8.6-217.1-8.2-63.8.4-127.6,1.3-191.4,2.8v192.2c-5.1.4-10.5,1.1-15.5,1.6-.2,0-.4,0-.6,0h0c-20,1.6-48.2,5.4-68.3,8.2h0c-.3-20,0-40.5,0-60.4l-.2-138.8c-20.2,0-43.7,1.5-64.2,2.2-62.5,2.1-125.3,6.8-187.9,7.3-57.6.5-112-5.3-168.9-13.2,0,0,0,0,0,0v-166h0c14.3,3.1,36.9,5.2,51.4,6.6,78.1,7.9,155.5,3,233.5-2.8,45.5-3.4,91-7.1,136.4-11.1V53.2c.4,0,.9-.1,1.3-.2,26.9-4.5,54.6-9.3,81.5-13.5h.1c.3.4.5.7.8,1v153.2c24.8-.5,54.1-3.1,79.3-4.5,54.6-3,109.3-5.3,164-6.9,76.2-1.7,163.8-1.4,237.8,17.7,0,0,0,0,0,0Z"/>
  <path class="st0" d="M390.8,467v113.7c-49.6,5.9-101.8,12.5-151.7,14.8-55.2,2.8-110.6-.4-165.2-9.5-4.4-.7-8.7-1.4-13.1-2,24.8-11.5,46.8-21.3,71.5-33.7,43.4-22.2,86.5-45,129.1-68.5,43.1-23.1,86-46.7,128.4-71.1h0l.8.6c.4,5.4.1,13,.1,18.7v36.9Z"/>
  <path class="st0" d="M889.6,553.5c-4.9-1-12-1.7-17.1-2.3-108-11.8-228-.7-336.3,12.2v-160.3c11.4,3.6,25.8,9.4,37,13.7,27.5,10.4,54.7,21,81.9,32,54,21.6,107.4,44.5,160.2,68.9,24.2,11.2,49.8,23.1,73.4,35.5.3.1.5.3.8.4Z"/>
  <path class="st0" d="M885.9,7c-7.3,3.5-21.8,8.2-29.8,11.3-19.1,7.4-38,15.1-56.9,23.1-64.9,27.6-129.1,56.4-192.8,86.6-23.8,11.3-47.3,22.7-70.9,34.2V34.5c.2,0,.4,0,.6-.1,11.8-2.3,23.9-4.2,35.8-6.5,69.8-13,138.5-23,209.5-26.3,36-1.7,69.1.7,104.6,5.3Z"/>
  <path class="st0" d="M391.1,100.1l-.2,80.4c-23.9-5.4-49.7-12.7-73.3-19.6-61.8-17.8-122.3-39.5-181.3-65.2-25.1-10.9-49.8-22.4-74.2-34.8,0,0,0,0,0,0,39.1,8.7,79.1,13.7,119.1,15.1,67.2,1.9,141.5-8.2,208.1-17.2h.1c0,0,1,0,1,0,1.4,2,.8,36.6.8,41.2Z"/>
  <path class="st0" d="M986.3,179.7c-51.1-13.7-115.7-16.1-168.2-16.5-23.2-.2-51.2-.4-74.3.6-6.2.4-12.7.3-19,.3,6.9-3.5,16.4-7.1,23.6-10.1l37.2-15.5c61.1-25.1,134.4-53.8,199.3-66.8h.1l.9.2c.2.4.3,4,.4,9.6.4,25,0,90,0,98.1Z"/>
  <path class="st2" d="M384.1,398.8c-12.9,8-29.8,16.8-43.1,24.1l-91.5,48.7c-59.5,31.6-118.8,63.6-180.7,90.4-12.7,5.5-25.4,11.3-38.5,15.5-5.6-1.2-11.4-2.9-16.9-4.3L0,568.9v-11.9s0,0,0,0c25.2-9.1,53-21.3,77.6-32.6,51-24,101.3-49.5,150.8-76.6,18.5-10,36.8-20.1,55.2-30.4,7.8-4.3,19.2-11.1,27.1-14.4,2.7-1.1,18.5-1.6,22.4-1.8l41.6-2.1h0c2.6-.3,6.7-.3,9.4-.4Z"/>
  <path class="st0" d="M216.5,406.4c-19.9,10.8-43.2,21.9-63.7,31.6C102.9,462.2,52,484.1.1,503.7c0,0,0,0,0,0v-105.6s0,0,0,0c19.4,2,36.6,4.8,56.6,6.3,53.2,3.9,106.5,4.6,159.8,2Z"/>
  <path class="st0" d="M986.3,417.7v92.2c-2.4-.9-20.3-12.3-23.6-14.2-16.6-9.7-33.5-19.1-50.5-27.9-53.7-27.8-106.1-50.4-160.3-76.1h0c13-.5,33.5.4,46.7.9,63.2,1.7,126.1,10.1,187.6,25.1Z"/>
  <path class="st1" d="M978.5,28.6c-19.8,4.4-41.2,10.9-60.5,17.1-50.2,16.7-99.6,35.6-148.2,56.5-35.8,15.3-71.6,30.6-107.3,46.3-9.6,4.2-19.1,8.4-28.7,12.6-5.5,2.4-13.1,6.1-18.6,7.7-2.7.8-12.1,1.1-15.6,1.4-17.2,1-37,1.6-53.6,3.1,14.5-7.3,32.6-15.1,47.7-22l93.4-42.5c47.6-21.8,95.6-42.5,144.2-62.3,29.3-11.8,61.5-24.2,91.8-32.7h0c1.2-.1,3.3.1,6.1.7,11.7,2.2,35.1,9.3,45.4,12.8,1.6.5,3,1,3.8,1.3Z"/>
  <path class="st3" d="M986.3,529v33.6c-14.3-10.5-26.7-18.9-41.6-28.5-72.3-44.8-152.3-79.2-230.7-111.9-24.9-10.4-50.2-19.7-75-29.9,23.6,0,47.1-.2,70.8-.5h0c1.8,0,3.7,0,5.5-.3,9.8-.8,138.7,61.6,155.5,70,16.5,8.2,32.7,16.8,48.7,25.7,23.5,13.1,44.5,26.8,66.8,41.7Z"/>
  <path class="st0" d="M203.4,199.6c-4.6.3-9.2.2-13.8.2-63.5.5-127-4.3-189.6-15.2,0,0,0,0-.1,0v-87.4H0c4.7,2.3,20,12.5,25.6,15.9,17.5,10.5,35.3,20.6,53.3,30.2,25.4,13.4,51.2,25.8,77.6,37,15.4,6.6,32,12.7,46.9,19.3Z"/>
  <path class="st4" d="M304.9,195.5l-.6.4c-19.5.3-46.1,2.7-65.6,2-4.6-.2-28.5-9.8-34.5-12.1C132.4,158.5,64,123.4,0,81v-29.9c4.9,2.7,12.2,8,17.2,11.3,10,6.7,20.1,13.3,30.2,19.7,32.5,20,66.1,37.9,100.6,53.9,28.2,13.1,56.9,24.9,86.1,35.5,14.2,5.2,28.5,10.2,42.9,14.8,4.5,1.5,25.4,7.4,27.8,9.1Z"/>
  <g>
    <g>
      <path class="st6" d="M377.2,289.2c-.9-5.3-4.1-10.2-8.9-13.3-3.4-2.3-6.7-3.3-10.7-4.1,5.5-2.7,10.6-5.7,12.4-11.6,3-9.5-.4-19.3-9.8-24.3-10.7-5.6-22.8-4.5-34.6-4.1l-28.8.9c1,28.2,2.6,58.4,3,86.4l27.5-.9c14.4-.5,35.5.5,45.3-11.8,4.2-5.4,5.9-10.7,4.7-17.5v.2h0ZM348.7,255.1c.2,1.6,0,2.9-.4,4.1-1,2.7-3.3,4.7-6.2,5.6-6.3,1.8-16.1,1.5-21.6,1.6l-.6-18.2c8-.3,27.1-3.5,28.8,6.8h0ZM346.9,300.4c-7.5,2.2-17.4,1.7-25.2,1.9l-.7-20.2c7.7-.2,18.9-1.4,26,.3,5.4,1.3,7.9,5.4,7.5,9.5s-3.6,7.2-7.6,8.4h0c0,0,0,0,0,0Z"/>
      <path class="st6" d="M239.1,233.2c16.4-1.8,31.2,2.9,42.9,13.6-4.4,3.9-9.9,9.4-14.2,13.7-16.4-16.2-45.7-11.4-50.5,10.7-6.1,28.2,24.7,42.4,48.6,27.6l-.4-11.2-19.9.6-.6-16.1,41.6-1.3,1.2,35.8c-10.7,10-21.7,14.2-36.7,15.8-14.5,1.5-29.7-1.3-41.1-10-9.7-7.3-15.7-17.8-16.9-29.4-3-27.5,17.6-47,45.8-49.7h0,.2Z"/>
      <path class="st6" d="M457.2,278c-2.2-16.9-16.5-28.4-34.7-25.8-6.4,1-11.9,3.8-15.8,8.6l-1.1-31.3-20.5.7-.5.5,3,85.9,18.5-.6v-6.4c12.8,11.3,31.5,9.2,43.4-2.4l.4-.4c7.3-9.1,9-17.6,7.5-28.7h0c0,0,0,0,0,0ZM434.1,292.7c-2.1,4.6-5.5,6.4-10.3,8.1-6.9,1.1-12-.6-16.1-6.1-.5-11.6-3.6-24.3,12.3-26.7,14.4-1,18.9,14.4,14.2,24.8h0Z"/>
      <path class="st6" d="M534.7,278.6c-2-19.2-20.8-32.9-41.4-30-17.7,2.7-30.8,17.6-30.3,34.2s18.8,34.1,39.3,32.3c19.8-1.8,34.1-18.3,32.3-36.6h0ZM500.5,298.3c-20.8.7-24-29.9-2.6-32.6,20.2-1,23.2,30.1,2.6,32.6Z"/>
      <path class="st6" d="M671.6,281.5l-.3-7.6c-1.3-17.8-15.6-30.6-34.9-29.1-9.6.8-19.9,4.3-25.5,11.4-20.5,25.9.4,57.7,34,53.2,11.7-1.5,16.5-3.9,25-11l-4.3-4c-2.3-2-5.2-4.4-7.3-6.6-10.3,9.7-29.5,10.3-34.1-4.9,15.6-.5,31.8-.8,47.3-1.7h0v.2ZM638.7,270.7l-14.5.5c.9-3.9,2.2-6.7,4.4-8.6,3.4-3,7.4-3.2,8.6-3.4,1.3,0,5.5-.3,9.3,2.3,4.5,3.1,5.1,7.8,5.2,8.7-4.3,0-8.5.4-12.8.4h0c0,0,0,0,0,0Z"/>
      <path class="st6" d="M747.4,241.3c9.7-.9,18.7,1.1,27,5.6l-7.7,12.9c-5.3-3.2-16.8-7.1-23-2.5-.6.5-1.5,2.3-1.4,2.9,2.1,5.9,14.2,5.3,19.6,7.7,3.8,1.1,6.9,2.6,9.9,5,7.5,6,7.2,19,.5,25.4-6.3,6.2-15.5,7.6-24.3,7.9-10.1,0-18.6-2.1-27.2-7.2l8.9-12.9c5.9,3.9,12.4,6.2,19.7,6s9.2-1.3,8.2-5.9c-.7-3.6-6.6-4.5-9.8-5.2-6.7-1.5-13.8-2.8-19.5-6.9-8.1-5.6-7.8-17.3-1.9-24.2,4.9-5.8,13.1-8,20.5-8.8h.4v.2Z"/>
      <path class="st6" d="M573.1,223.9l21.1-.7c1.3,28.5,2,57.8,3,86.4l-21.2.7c-.3-28.6-2.5-57.7-3-86.4h0Z"/>
      <path class="st6" d="M712.3,242.8c4.1-.4,4.9-.4,8.8.8-.6,5.8-1.1,11.6-1.7,17.4-9.4-1.9-18.1.6-19.9,10.4-.8,4.4-.3,9.7-.2,14.4l.7,20.7-20.8.7c-.7-20.7-1.7-41.3-2.7-62l20.7-.7.3,9.5c.4-.8.8-1.4,1.3-2.2,3-5.1,7.6-7.2,13.3-8.8h0c0,0,0,0,0,0Z"/>
      <path class="st6" d="M541.5,249.4l21.2-.7c.2,5.4,2.4,60.9,1.7,62l-20.7.7c-.3-20.3-1.4-41.5-2.1-62h0Z"/>
      <path class="st6" d="M548,213.7c7.3,5.4,18.8,17.5,11.6,26.3-1.5,1.9-3.5,3-5.7,4.1,2.3-4.1,1.8-6.4-1.4-9.8l-2.2-2.1c-2.4,5.1-5.4,5-2.9,11.3-2.3-1.7-5.2-3.7-6-6.4-2.8-10.1,10.7-12.3,6.7-23.4h0Z"/>
    </g>
    <g>
      <g>
        <path class="st6" d="M212.1,345.2c-.5,1-1.4,1.9-2.6,2.6s-2.8,1.1-4.5,1.1h-3.7c0,0,.3,8.5.3,8.5h-4.5c0,0-.8-21.8-.8-21.8l8.3-.3c1.7,0,3.2,0,4.4.7s2.2,1.3,2.9,2.3,1,2.2,1.1,3.5-.2,2.3-.7,3.3h0c0,0,0,0,0,0ZM207.4,344.3c.6-.5.9-1.4.9-2.4,0-2.1-1.3-3.2-3.8-3.1h-3.6c0,0,.2,6.5.2,6.5h3.6c1.2-.2,2.1-.4,2.8-1.1h0Z"/>
        <path class="st6" d="M232.2,352.9l7.5-.2v3.5c0,0-11.7.4-11.7.4l-.8-21.9h4.5c0,0,.6,18.3.6,18.3h0Z"/>
        <path class="st6" d="M257.1,333.6l.5,13.6c0,1.5.5,2.6,1.3,3.3.8.7,1.9,1.1,3.4,1s2.5-.5,3.3-1.2c.8-.8,1.1-1.9,1.1-3.4l-.5-13.6h4.5c0,0,.5,13.3.5,13.3,0,1.9-.3,3.5-1,4.8s-1.8,2.3-3.2,3c-1.3.7-2.9,1.1-4.6,1.1s-3.2-.3-4.6-.9-2.5-1.5-3.3-2.8-1.3-2.8-1.4-4.7l-.5-13.5h4.5Z"/>
        <path class="st6" d="M310.7,331.9l.8,21.9h-4.5c0,0-.5-14.1-.5-14.1-2.2,2.2-4.5,4.4-6.7,6.7h-1.5c-2.5-2-4.8-4-7.3-6.2l.5,14.2h-4.5c0,0-.8-21.8-.8-21.8l5.1-.2c2.5,2.8,5,5.5,7.4,8.3,2.3-2.9,4.6-5.8,6.9-8.7l5.2-.2h0Z"/>
        <path class="st6" d="M342.4,343.4c.8,1,1.3,2.1,1.3,3.5s-.2,2.3-.8,3.1c-.5.9-1.4,1.7-2.5,2.2s-2.4.8-4,.9l-9.7.3-.8-21.9,9.3-.3c1.5,0,2.8.2,4,.6,1.1.5,2,1.1,2.6,1.9s.9,1.8.9,2.8-.3,2.4-1,3.3c-.6.9-1.5,1.5-2.7,2,1.2.2,2.3.8,3.1,1.8h0c0,0,.2-.2.2-.2ZM330.9,340.4h4.1c1.1-.2,1.9-.4,2.5-1s.9-1.2.9-2-.3-1.5-1-2c-.6-.5-1.5-.7-2.6-.7h-4.1c0,0,.2,5.6.2,5.6h0ZM338.3,348.6c.6-.5.9-1.3.9-2.1s-.3-1.6-1-2.2c-.7-.5-1.5-.7-2.7-.7h-4.4c0,0,.2,6,.2,6h4.5c1.1-.2,2-.5,2.5-1h0Z"/>
        <path class="st6" d="M362.3,330.2l.8,21.9h-4.5c0,0-.8-21.8-.8-21.8h4.5Z"/>
        <path class="st6" d="M397.8,351.1h-4.5c0,0-10.8-14.5-10.8-14.5l.5,15h-4.5c0,0-.8-21.8-.8-21.8h4.5c0,0,10.8,14.6,10.8,14.6l-.5-15.1h4.5c0,0,.8,21.8.8,21.8Z"/>
        <path class="st6" d="M476.9,344.3l-8.9.3-1.3,4.2-4.8.2,7.4-22.2,5.2-.2,8.9,21.7-4.8.2-1.6-4.1h0ZM475.5,340.8l-3.5-9-2.9,9.2,6.5-.2h0Z"/>
        <path class="st6" d="M516.5,347.2h-4.5c0,0-10.8-14.5-10.8-14.5l.5,15h-4.5c0,0-.8-21.8-.8-21.8h4.5c0,0,10.8,14.6,10.8,14.6l-.5-15.1h4.5c0,0,.8,21.8.8,21.8Z"/>
        <path class="st6" d="M545.4,325.7c1.8.8,3.3,2,4.3,3.7,1,1.6,1.6,3.6,1.7,5.7s-.4,4.1-1.3,5.8-2.3,2.9-4,4c-1.7.9-3.8,1.5-6.2,1.6l-7.9.3-.8-21.9,7.9-.3c2.4,0,4.4.4,6.3,1.2h0ZM545,340.7c1.3-1.3,1.8-3.1,1.7-5.4s-.8-4.1-2.1-5.3-3.1-1.8-5.5-1.7h-3.2c0,0,.5,14.6.5,14.6h3.2c2.4-.2,4.1-.9,5.4-2.2h0Z"/>
        <path class="st6" d="M599.5,322.6l.8,21.9h-4.5c0,0-.3-9.2-.3-9.2l-9.6.3.3,9.4h-4.5c0,0-.8-21.8-.8-21.8h4.5c0,0,.3,8.8.3,8.8l9.6-.3-.3-9h4.5Z"/>
        <path class="st6" d="M619.6,325.5l.2,5.5,7.6-.2v3.5c0,0-7.5.2-7.5.2l.2,5.9,8.5-.3v3.6c0,0-12.9.4-12.9.4l-.8-21.9,13.1-.4v3.6c0,0-8.4.3-8.4.3h0v-.2Z"/>
        <path class="st6" d="M657.4,338.4l-8.9.3-1.3,4.2-4.8.2,7.4-22.2,5.2-.2,8.9,21.7-4.8.2-1.6-4.1h0ZM656.1,335l-3.5-9-2.9,9.2,6.5-.2h0Z"/>
        <path class="st6" d="M687.3,319.7v3.5c0,0-5.9.2-5.9.2l.6,18.3h-4.5c0,0-.6-18.2-.6-18.2l-6,.2v-3.5c0,0,16.4-.5,16.4-.5Z"/>
        <path class="st6" d="M706,319.2l.8,21.9h-4.5c0,0-.8-21.8-.8-21.8h4.5Z"/>
        <path class="st6" d="M741.6,339.9h-4.5c0,0-10.8-14.5-10.8-14.5l.5,15h-4.5c0,0-.8-21.8-.8-21.8h4.5c0,0,10.8,14.6,10.8,14.6l-.5-15.1h4.5c0,0,.8,21.8.8,21.8Z"/>
      </g>
      <g>
        <polygon class="st6" points="430.4 337.8 434.3 337.6 434.7 349.9 430.8 350 430.4 337.8"/>
        <path class="st6" d="M428.5,334.7c-.6-.9-1.3-1.6-2.2-2.1s-2-.7-3.2-.6-2.5.3-3.6,1c-1,.7-1.8,1.4-2.3,2.6s-.9,2.4-.8,3.8.4,2.7,1.1,3.8c.6,1.1,1.5,1.8,2.5,2.4,1.1.6,2.3.8,3.8.8s3-.6,4.2-1.5c1-.9,1.8-2.2,2-3.8l-7.7.2v-3.4c0,0,12-.4,12-.4v3.9c0,1.5-.7,3-1.6,4.3s-2.2,2.4-3.8,3.2c-1.6.8-3.3,1.2-5.2,1.3s-4.1-.4-5.9-1.2c-1.8-.9-3.1-2.1-4.3-3.9-1-1.7-1.6-3.6-1.7-5.7s.4-4.1,1.3-5.8c.9-1.8,2.3-3.1,4-4.1,1.7-1.1,3.7-1.5,5.8-1.6s4.7.5,6.7,1.5,3.3,2.8,4,5l-5.2.2h0Z"/>
      </g>
      <g>
        <polygon class="st6" points="775.2 326.6 779.1 326.5 779.5 338.7 775.6 338.8 775.2 326.6"/>
        <path class="st6" d="M773.2,323.6c-.6-.9-1.3-1.6-2.2-2.1-1-.5-2-.7-3.2-.6s-2.5.3-3.6,1-1.8,1.4-2.3,2.6c-.5,1.1-.9,2.4-.8,3.8s.4,2.7,1.1,3.8c.6,1.1,1.5,1.8,2.5,2.4,1.1.6,2.3.8,3.8.8s3-.6,4.2-1.5c1-.9,1.8-2.2,2-3.8l-7.7.2v-3.4c0,0,12-.4,12-.4v3.9c0,1.5-.7,3-1.6,4.3s-2.2,2.4-3.8,3.2-3.3,1.2-5.2,1.3-4.1-.4-5.9-1.2c-1.8-.9-3.1-2.1-4.3-3.9-1-1.7-1.6-3.6-1.7-5.7s.4-4.1,1.3-5.8c.9-1.8,2.3-3.1,4-4.1s3.7-1.5,5.8-1.6,4.7.5,6.7,1.5,3.3,2.8,4,5l-5.2.2h0Z"/>
      </g>
    </g>
  </g>
</svg>