<?xml version="1.0" encoding="UTF-8"?>
<svg id="Layer_1" xmlns="http://www.w3.org/2000/svg" width="13.7in" height="8.3in" xmlns:xlink="http://www.w3.org/1999/xlink" version="1.1" viewBox="0 0 988 596.4">
  <!-- Generator: Adobe Illustrator 29.8.2, SVG Export Plug-In . SVG Version: 2.1.1 Build 3)  -->
  <defs>
    <style>
      .st0 {
        fill: #273375;
      }

      .st1 {
        fill: url(#linear-gradient2);
      }

      .st2 {
        fill: url(#linear-gradient1);
      }

      .st3 {
        fill: url(#linear-gradient3);
      }

      .st4 {
        fill: url(#linear-gradient4);
      }

      .st5 {
        fill: url(#linear-gradient);
      }

      .st6 {
        fill: #fff;
      }
    </style>
    <linearGradient id="linear-gradient" x1="493.9" y1="38.6" x2="493.9" y2="577" gradientUnits="userSpaceOnUse">
      <stop offset="0" stop-color="#e43549"/>
      <stop offset="1" stop-color="#b11d29"/>
    </linearGradient>
    <linearGradient id="linear-gradient1" x1="0" y1="487.9" x2="384.7" y2="487.9" xlink:href="#linear-gradient"/>
    <linearGradient id="linear-gradient2" x1="546.9" y1="92.7" x2="980.1" y2="92.7" xlink:href="#linear-gradient"/>
    <linearGradient id="linear-gradient3" x1="640" y1="476.8" x2="987.9" y2="476.8" xlink:href="#linear-gradient"/>
    <linearGradient id="linear-gradient4" x1="0" y1="123.7" x2="305.2" y2="123.7" xlink:href="#linear-gradient"/>
  </defs>
  <path class="st6" d="M0,50.2c14.3,1.9,35.9,5,62.2,9.7,21.9,3.9,29.6,5.8,44.4,8.2,32.3,5.3,57.4,6.3,74.9,6.9,17.2.6,58.7,1.5,155-10.6,24.2-3,47.3-6.3,85.5-12.3,121.7-19.1,153.4-27.8,249.9-41.5C723.8,3.5,760-.5,805.3,0c41.3.4,71,4.3,82,5.8,41.1,5.8,75.2,15,100.5,23.2,0,179.2,0,358.5,0,537.7-25.9-4.5-58.7-9.5-96.8-13.6-20.7-2.2-50.9-5.4-88.8-6.8-16.7-.6-62.8-1.9-148.1,4.7-32.2,2.5-60.5,5.6-117,12-54.9,6.2-81.3,9.7-115.1,13.8-97.1,11.7-145.6,18.3-194.6,19.4-89.3,2-148.2-8.9-166.4-12.5-25.4-5-46.2-10.7-60.9-15.1C0,395.9,0,223.1,0,50.2Z"/>
  <path class="st5" d="M505.1,38.6c.3.3.5.6.8.9,0,32.5,0,127.1,0,153.5,24.8-.5,54.2-3.1,79.4-4.5,54.7-3,109.5-5.3,164.3-6.9,76.4-1.7,164.2-1.4,238.3,17.8v193.8c-21.6-6.2-50-10.3-72.2-13.3-72.6-9.5-144.5-8.6-217.4-8.2-63.9.4-127.8,1.3-191.7,2.8v192.5c-5.3.4-11,1.2-16.2,1.7-20,1.6-48.3,5.4-68.4,8.2-.3-20,0-40.5-.1-60.5l-.2-139c-20.2,0-43.8,1.5-64.3,2.2-62.6,2.1-125.5,6.8-188.2,7.3-57.7.5-112.2-5.3-169.2-13.2v-166.3c14.3,3.1,37,5.2,51.5,6.6,78.2,7.9,155.8,3,233.9-2.8,45.6-3.4,91.1-7.1,136.6-11.1V52.2c27.4-4.6,55.6-9.5,83-13.7Z"/>
  <path class="st0" d="M390.5,410.4l.8.6c.4,5.4.1,13,.1,18.7v37c0,0,.1,113.9.1,113.9-49.8,5.9-102.1,12.5-152,14.8-55.3,2.8-110.8-.4-165.5-9.5-4.4-.7-8.7-1.4-13.1-2,24.8-11.5,46.9-21.3,71.6-33.7,43.5-22.2,86.6-45.1,129.3-68.6,43.2-23.1,86.1-46.8,128.6-71.2Z"/>
  <path class="st0" d="M537.1,402.6c11.4,3.6,25.8,9.4,37.1,13.7,27.5,10.4,54.8,21,82,32,54.1,21.6,107.6,44.6,160.5,69,24.5,11.3,50.4,23.4,74.3,36-4.9-1-12-1.7-17.1-2.3-108.2-11.8-228.4-.7-336.8,12.2v-160.6Z"/>
  <path class="st0" d="M782.5.6c36.1-1.7,69.2.7,104.8,5.3-7.3,3.5-21.8,8.2-29.9,11.3-19.1,7.4-38.1,15.1-57,23.1-65,27.6-129.3,56.5-193.1,86.7-23.8,11.3-47.4,22.7-71,34.3V33.5c12-2.4,24.3-4.3,36.4-6.6C642.6,13.9,711.4,3.9,782.5.6Z"/>
  <path class="st0" d="M389.9,57.9h1c1.4,2,.8,36.7.8,41.3l-.2,80.5c-23.9-5.4-49.8-12.7-73.4-19.6-61.9-17.8-122.5-39.6-181.6-65.3-25.1-10.9-49.9-22.5-74.4-34.9,39.2,8.7,79.2,13.7,119.3,15.1,67.3,1.9,141.7-8.2,208.4-17.2Z"/>
  <path class="st0" d="M986.5,70.8l.9.2c1,2.2.4,98,.4,107.9-51.2-13.7-115.9-16.1-168.5-16.5-23.2-.2-51.3-.4-74.4.6-6.2.4-12.7.3-19,.3,6.9-3.5,16.4-7.1,23.6-10.1l37.3-15.5c61.2-25.1,134.6-53.9,199.6-66.9Z"/>
  <path class="st2" d="M375.3,398.7c2.6-.2,6.7-.2,9.4-.3-12.9,8-29.8,16.8-43.2,24.1l-91.6,48.8c-59.6,31.6-119,63.7-181,90.5-12.7,5.5-25.4,11.3-38.6,15.5-5.6-1.2-11.4-2.9-16.9-4.3L0,568.8v-11.9c25.3-9.1,53.2-21.4,77.8-32.7,51.1-24,101.5-49.6,151-76.7,18.5-10,36.9-20.1,55.3-30.4,7.8-4.3,19.2-11.1,27.1-14.4,2.7-1.1,18.5-1.6,22.4-1.8l41.7-2.1Z"/>
  <path class="st0" d="M0,397.7c19.4,2,36.7,4.8,56.7,6.3,53.3,3.9,106.7,4.6,160.1,2-19.9,10.8-43.3,21.9-63.8,31.7C103,461.9,52,483.8,0,503.5v-105.8Z"/>
  <path class="st0" d="M753.1,391.3c13-.5,33.5.4,46.8.9,63.3,1.7,126.3,10.1,187.9,25.1v92.3c-2.4-.9-20.3-12.3-23.6-14.2-16.6-9.7-33.5-19.1-50.6-27.9-53.8-27.8-106.3-50.5-160.6-76.2Z"/>
  <path class="st1" d="M924.6,12.8c6.8-.7,47.6,11.8,55.4,14.8-19.8,4.4-41.3,10.9-60.6,17.1-50.3,16.7-99.8,35.6-148.4,56.6-35.9,15.3-71.7,30.7-107.5,46.4-9.6,4.2-19.1,8.4-28.7,12.6-5.5,2.4-13.1,6.1-18.6,7.7-2.7.8-12.1,1.1-15.6,1.4-17.2,1-37.1,1.6-53.7,3.1,14.5-7.3,32.7-15.1,47.8-22l93.5-42.6c47.7-21.8,95.8-42.6,144.4-62.4,29.4-11.8,61.6-24.2,91.9-32.7Z"/>
  <path class="st3" d="M710.8,391.4c1.8,0,3.7,0,5.5-.2,9.8-.8,138.9,61.7,155.8,70.1,16.5,8.2,32.7,16.8,48.8,25.7,23.5,13.1,44.6,26.8,66.9,41.8,0,11.2,0,22.4,0,33.7-14.3-10.5-26.7-18.9-41.7-28.5-72.4-44.9-152.6-79.3-231.1-112.1-24.9-10.4-50.3-19.7-75.1-29.9,23.6,0,47.2-.2,70.9-.5Z"/>
  <path class="st0" d="M0,96.4c4.7,2.3,20,12.5,25.6,15.9,17.5,10.5,35.4,20.6,53.4,30.2,25.4,13.4,51.3,25.8,77.7,37.1,15.4,6.6,32.1,12.7,47,19.3-4.6.3-9.2.2-13.8.2-63.6.5-127.3-4.3-190-15.2v-87.5Z"/>
  <path class="st4" d="M0,50.2c4.9,2.7,12.2,8,17.2,11.3,10,6.7,20.1,13.3,30.3,19.7,32.5,20,66.2,38,100.8,54,28.2,13.1,57,24.9,86.2,35.6,14.2,5.2,28.5,10.2,43,14.8,4.5,1.5,25.4,7.4,27.8,9.1l-.6.4c-19.5.3-46.2,2.7-65.7,2-4.6-.2-28.5-9.8-34.6-12.1C132.5,157.7,64,122.5,0,80.1v-29.9Z"/>
  <g>
    <g>
      <path class="st6" d="M377.8,288.6c-.9-5.3-4.1-10.2-8.9-13.3-3.4-2.3-6.7-3.3-10.7-4.1,5.5-2.7,10.6-5.7,12.4-11.6,3-9.5-.4-19.3-9.8-24.3-10.7-5.6-22.8-4.5-34.7-4.1l-28.8.9c1,28.2,2.6,58.5,3,86.5l27.5-.9c14.4-.5,35.6.5,45.4-11.8,4.2-5.4,5.9-10.7,4.7-17.5v.2s-.1,0-.1,0ZM349.2,254.4c.2,1.6,0,2.9-.4,4.1-1,2.7-3.3,4.7-6.2,5.6-6.3,1.8-16.1,1.5-21.6,1.6l-.6-18.2c8-.3,27.1-3.5,28.8,6.8h0ZM347.4,299.8c-7.5,2.2-17.4,1.7-25.2,1.9l-.7-20.2c7.7-.2,18.9-1.4,26,.3,5.4,1.3,7.9,5.4,7.5,9.5-.4,4.1-3.6,7.2-7.6,8.4h-.1s0,.1,0,.1Z"/>
      <path class="st6" d="M239.4,232.5c16.4-1.8,31.3,2.9,43,13.6-4.4,3.9-9.9,9.4-14.2,13.7-16.4-16.2-45.8-11.4-50.6,10.7-6.1,28.2,24.7,42.5,48.7,27.6l-.4-11.2-19.9.6-.6-16.1,41.7-1.3,1.2,35.9c-10.7,10-21.7,14.2-36.8,15.8-14.5,1.5-29.7-1.3-41.2-10-9.7-7.3-15.7-17.8-16.9-29.4-3-27.5,17.6-47.1,45.9-49.8h-.1Z"/>
      <path class="st6" d="M457.9,277.4c-2.2-16.9-16.5-28.4-34.8-25.8-6.4,1-11.9,3.8-15.8,8.6l-1.1-31.4-20.5.7-.5.5,3,86,18.5-.6v-6.4c12.8,11.3,31.6,9.2,43.5-2.4l.4-.4c7.3-9.1,9-17.6,7.5-28.7h-.1s0-.1,0-.1ZM434.7,292.1c-2.1,4.6-5.5,6.4-10.3,8.1-6.9,1.1-12-.6-16.1-6.1-.5-11.6-3.6-24.3,12.3-26.7,14.4-1,18.9,14.4,14.2,24.8h-.1s0,0,0,0Z"/>
      <path class="st6" d="M535.5,278c-2-19.2-20.8-33-41.5-30-17.7,2.7-30.9,17.6-30.3,34.3s18.8,34.2,39.4,32.4c19.8-1.8,34.2-18.3,32.4-36.7h0ZM501.2,297.7c-20.8.7-24-29.9-2.6-32.7,20.2-1,23.2,30.1,2.6,32.7Z"/>
      <path class="st6" d="M672.6,280.9l-.3-7.6c-1.3-17.8-15.6-30.6-35-29.1-9.6.8-19.9,4.3-25.5,11.4-20.5,25.9.4,57.8,34.1,53.3,11.7-1.5,16.5-3.9,25-11l-4.3-4c-2.3-2-5.2-4.4-7.3-6.6-10.3,9.7-29.5,10.3-34.2-4.9,15.6-.5,31.9-.8,47.4-1.7h0ZM639.7,270.1l-14.5.5c.9-3.9,2.2-6.7,4.4-8.6,3.4-3,7.4-3.2,8.6-3.4,1.3,0,5.5-.3,9.3,2.3,4.5,3.1,5.1,7.8,5.2,8.7-4.3.1-8.5.4-12.8.4h-.1s0,.1,0,.1Z"/>
      <path class="st6" d="M748.6,240.6c9.7-.9,18.7,1.1,27,5.6l-7.7,12.9c-5.3-3.2-16.8-7.1-23-2.5-.6.5-1.5,2.3-1.4,2.9,2.1,5.9,14.2,5.3,19.6,7.7,3.8,1.1,6.9,2.6,9.9,5,7.5,6,7.2,19,.5,25.4-6.3,6.2-15.5,7.6-24.3,7.9-10.1,0-18.6-2.1-27.2-7.2l8.9-12.9c5.9,3.9,12.4,6.2,19.7,6s9.2-1.3,8.2-5.9c-.7-3.6-6.6-4.5-9.8-5.2-6.7-1.5-13.8-2.8-19.5-6.9-8.1-5.6-7.8-17.3-1.9-24.2,4.9-5.8,13.1-8,20.5-8.8h.4s0,0,0,0Z"/>
      <path class="st6" d="M574,223.2l21.1-.7c1.3,28.5,2,57.9,3,86.5l-21.2.7c-.3-28.6-2.5-57.8-3-86.5h.1Z"/>
      <path class="st6" d="M713.4,242.1c4.1-.4,4.9-.4,8.8.8-.6,5.8-1.1,11.6-1.7,17.4-9.4-1.9-18.1.6-19.9,10.4-.8,4.4-.3,9.7-.2,14.4l.7,20.7-20.8.7c-.7-20.7-1.7-41.4-2.7-62.1l20.7-.7.3,9.5c.4-.8.8-1.4,1.3-2.2,3-5.1,7.6-7.2,13.3-8.8h.1s0-.1,0-.1Z"/>
      <path class="st6" d="M542.3,248.7l21.2-.7c.2,5.4,2.4,61,1.7,62.1l-20.7.7c-.3-20.3-1.4-41.6-2.1-62.1h-.1s0,0,0,0Z"/>
      <path class="st6" d="M548.8,213c7.3,5.4,18.8,17.5,11.6,26.3-1.5,1.9-3.5,3-5.7,4.1,2.3-4.1,1.8-6.4-1.4-9.8l-2.2-2.1c-2.4,5.1-5.4,5-2.9,11.3-2.3-1.7-5.2-3.7-6-6.4-2.8-10.1,10.7-12.3,6.7-23.4Z"/>
    </g>
    <g>
      <g>
        <path class="st6" d="M212.4,344.7c-.5,1-1.4,1.9-2.6,2.6s-2.8,1.1-4.5,1.1h-3.7c0,.1.3,8.5.3,8.5h-4.5c0,.1-.8-21.8-.8-21.8l8.3-.3c1.7,0,3.2.1,4.4.7s2.2,1.3,2.9,2.3,1,2.2,1.1,3.5-.2,2.3-.7,3.3h-.1s0,.1,0,.1ZM207.7,343.8c.6-.5.9-1.4.9-2.4,0-2.1-1.3-3.2-3.8-3.1h-3.6c0,.1.2,6.5.2,6.5h3.6c1.2-.2,2.1-.4,2.8-1.1h0Z"/>
        <path class="st6" d="M232.5,352.4l7.5-.2v3.5c.1,0-11.7.4-11.7.4l-.8-21.9h4.5c0-.1.6,18.3.6,18.3h-.1Z"/>
        <path class="st6" d="M257.5,333.1l.5,13.6c0,1.5.5,2.6,1.3,3.3.8.7,1.9,1.1,3.4,1s2.5-.5,3.3-1.2c.8-.8,1.1-1.9,1.1-3.4l-.5-13.6h4.5c0-.1.5,13.3.5,13.3,0,1.9-.3,3.5-1,4.8s-1.8,2.3-3.2,3c-1.3.7-2.9,1.1-4.6,1.1-1.7,0-3.2-.3-4.6-.9s-2.5-1.5-3.3-2.8-1.3-2.8-1.4-4.7l-.5-13.5h4.5Z"/>
        <path class="st6" d="M311.1,331.4l.8,21.9h-4.5c0,.1-.5-14.1-.5-14.1-2.2,2.2-4.5,4.4-6.7,6.7h-1.5c-2.5-2-4.8-4-7.3-6.2l.5,14.2h-4.5c0,.1-.8-21.8-.8-21.8l5.1-.2c2.5,2.8,5,5.5,7.4,8.3,2.3-2.9,4.6-5.8,6.9-8.7l5.2-.2h0Z"/>
        <path class="st6" d="M342.9,342.9c.8,1,1.3,2.1,1.3,3.5s-.2,2.3-.8,3.1c-.5.9-1.4,1.7-2.5,2.2s-2.4.8-4,.9l-9.7.3-.8-21.9,9.3-.3c1.5,0,2.8.2,4,.6,1.1.5,2,1.1,2.6,1.9s.9,1.8.9,2.8-.3,2.4-1,3.3c-.6.9-1.5,1.5-2.7,2,1.2.2,2.3.8,3.1,1.8h.1s0-.1,0-.1ZM331.4,339.9h4.1c1.1-.2,1.9-.4,2.5-1,.5-.5.9-1.2.9-2s-.3-1.5-1-2c-.6-.5-1.5-.7-2.6-.7h-4.1c0,.1.2,5.6.2,5.6h0ZM338.8,348.1c.6-.5.9-1.3.9-2.1s-.3-1.6-1-2.2c-.7-.5-1.5-.7-2.7-.7h-4.4c0,.1.2,6,.2,6h4.5c1.1-.2,2-.5,2.5-1h0Z"/>
        <path class="st6" d="M362.8,329.7l.8,21.9h-4.5c0,.1-.8-21.8-.8-21.8h4.5Z"/>
        <path class="st6" d="M398.4,350.6h-4.5c0,.1-10.8-14.5-10.8-14.5l.5,15h-4.5c0,.1-.8-21.8-.8-21.8h4.5c0-.1,10.8,14.6,10.8,14.6l-.5-15.1h4.5c0-.1.8,21.8.8,21.8Z"/>
        <path class="st6" d="M477.6,343.8l-8.9.3-1.3,4.2-4.8.2,7.4-22.2,5.2-.2,8.9,21.7-4.8.2-1.6-4.1h0ZM476.2,340.3l-3.5-9-2.9,9.2,6.5-.2h-.1Z"/>
        <path class="st6" d="M517.3,346.7h-4.5c0,.1-10.8-14.5-10.8-14.5l.5,15h-4.5c0,.1-.8-21.8-.8-21.8h4.5c0-.1,10.8,14.6,10.8,14.6l-.5-15.1h4.5c0-.1.8,21.8.8,21.8Z"/>
        <path class="st6" d="M546.2,325.2c1.8.8,3.3,2,4.3,3.7,1,1.6,1.6,3.6,1.7,5.7s-.4,4.1-1.3,5.8-2.3,2.9-4,4c-1.7.9-3.8,1.5-6.2,1.6l-7.9.3-.8-21.9,7.9-.3c2.4,0,4.4.4,6.3,1.2h0ZM545.8,340.2c1.3-1.3,1.8-3.1,1.7-5.4s-.8-4.1-2.1-5.3-3.1-1.8-5.5-1.7h-3.2c0,.1.5,14.6.5,14.6h3.2c2.4-.2,4.1-.9,5.4-2.2Z"/>
        <path class="st6" d="M600.4,322.1l.8,21.9h-4.5c0,.1-.3-9.2-.3-9.2l-9.6.3.3,9.4h-4.5c0,.1-.8-21.8-.8-21.8h4.5c0-.1.3,8.8.3,8.8l9.6-.3-.3-9h4.5Z"/>
        <path class="st6" d="M620.5,325l.2,5.5,7.6-.2v3.5c.1,0-7.5.2-7.5.2l.2,5.9,8.5-.3v3.6c.1,0-12.9.4-12.9.4l-.8-21.9,13.1-.4v3.6c.1,0-8.4.3-8.4.3h0Z"/>
        <path class="st6" d="M658.4,337.9l-8.9.3-1.3,4.2-4.8.2,7.4-22.2,5.2-.2,8.9,21.7-4.8.2-1.6-4.1h0ZM657.1,334.5l-3.5-9-2.9,9.2,6.5-.2h-.1Z"/>
        <path class="st6" d="M688.4,319.2v3.5c.1,0-5.9.2-5.9.2l.6,18.3h-4.5c0,.1-.6-18.2-.6-18.2l-6,.2v-3.5c-.1,0,16.4-.5,16.4-.5Z"/>
        <path class="st6" d="M707.1,318.6l.8,21.9h-4.5c0,.1-.8-21.8-.8-21.8h4.5Z"/>
        <path class="st6" d="M742.7,339.4h-4.5c0,.1-10.8-14.5-10.8-14.5l.5,15h-4.5c0,.1-.8-21.8-.8-21.8h4.5c0-.1,10.8,14.6,10.8,14.6l-.5-15.1h4.5c0-.1.8,21.8.8,21.8Z"/>
      </g>
      <g>
        <polygon class="st6" points="431 337.3 434.9 337.1 435.3 349.4 431.4 349.5 431 337.3"/>
        <path class="st6" d="M429.1,334.2c-.6-.9-1.3-1.6-2.2-2.1s-2-.7-3.2-.6-2.5.3-3.6,1c-1,.7-1.8,1.4-2.3,2.6s-.9,2.4-.8,3.8.4,2.7,1.1,3.8c.6,1.1,1.5,1.8,2.5,2.4,1.1.6,2.3.8,3.8.8s3-.6,4.2-1.5c1-.9,1.8-2.2,2-3.8l-7.7.2v-3.4c-.1,0,12-.4,12-.4v3.9c0,1.5-.7,3-1.6,4.3-.9,1.3-2.2,2.4-3.8,3.2-1.6.8-3.3,1.2-5.2,1.3s-4.1-.4-5.9-1.2c-1.8-.9-3.1-2.1-4.3-3.9-1-1.7-1.6-3.6-1.7-5.7s.4-4.1,1.3-5.8c.9-1.8,2.3-3.1,4-4.1,1.7-1.1,3.7-1.5,5.8-1.6s4.7.5,6.7,1.5,3.3,2.8,4,5l-5.2.2h0Z"/>
      </g>
      <g>
        <polygon class="st6" points="776.4 326.1 780.3 326 780.7 338.2 776.8 338.3 776.4 326.1"/>
        <path class="st6" d="M774.4,323.1c-.6-.9-1.3-1.6-2.2-2.1-1-.5-2-.7-3.2-.6s-2.5.3-3.6,1-1.8,1.4-2.3,2.6c-.5,1.1-.9,2.4-.8,3.8s.4,2.7,1.1,3.8c.6,1.1,1.5,1.8,2.5,2.4,1.1.6,2.3.8,3.8.8s3-.6,4.2-1.5c1-.9,1.8-2.2,2-3.8l-7.7.2v-3.4c-.1,0,12-.4,12-.4v3.9c0,1.5-.7,3-1.6,4.3s-2.2,2.4-3.8,3.2-3.3,1.2-5.2,1.3-4.1-.4-5.9-1.2c-1.8-.9-3.1-2.1-4.3-3.9-1-1.7-1.6-3.6-1.7-5.7s.4-4.1,1.3-5.8c.9-1.8,2.3-3.1,4-4.1s3.7-1.5,5.8-1.6,4.7.5,6.7,1.5,3.3,2.8,4,5l-5.2.2h0Z"/>
      </g>
    </g>
  </g>
</svg>